# xmcd
#
# Track frame offsets: 
#        150
#        15311
#        35611
#        52616
#        62853
#        77815
#        91602
#        107223
#        123350
#        142965
#
# Disc length: 2191 seconds
#
# Revision: 0
# Processed by: cddbd v1.5.2PL0 Copyright (c) Steve Scherf et al.
# Submitted via: ExactAudioCopyFreeDBPlugin 1.0
#
DISCID=72088d0a
DTITLE=Yoann Minkoff - Black and White Blues
DYEAR=2016
DGENRE=Blues
TTITLE0=Reach the Sun
TTITLE1=Guide
TTITLE2=Blackhaired Girl
TTITLE3=C.A.G.E.D
TTITLE4=Devil got my Soul
TTITLE5=Sleepless
TTITLE6=New Star
TTITLE7=Storyteller
TTITLE8=Down in the Hole
TTITLE9=Devil in a Fancy Dress
EXTD=
EXTT0=
EXTT1=
EXTT2=
EXTT3=
EXTT4=
EXTT5=
EXTT6=
EXTT7=
EXTT8=
EXTT9=
PLAYORDER=
